<svg width="14" height="14" viewBox="0 0 14 14" fill="none" xmlns="http://www.w3.org/2000/svg">
<g opacity="0.4">
<path d="M7 12.2285C9.8995 12.2285 12.25 9.87801 12.25 6.97852C12.25 4.07902 9.8995 1.72852 7 1.72852C4.10051 1.72852 1.75 4.07902 1.75 6.97852C1.75 9.87801 4.10051 12.2285 7 12.2285Z" stroke="#221D1F" stroke-width="0.71875" stroke-miterlimit="10" stroke-linecap="round" stroke-linejoin="round"/>
<path d="M5.53467 5.49141C5.53467 5.49141 5.81904 4.44141 7.04404 4.44141C7.98467 4.44141 8.57529 5.18516 8.57529 5.84141C8.57529 6.93516 7.19717 7.35078 6.97842 7.39453V8.53203" stroke="#221D1F" stroke-width="0.71875" stroke-miterlimit="10" stroke-linecap="round" stroke-linejoin="round"/>
<path d="M7 9.71289C7.12081 9.71289 7.21875 9.61495 7.21875 9.49414C7.21875 9.37333 7.12081 9.27539 7 9.27539C6.87919 9.27539 6.78125 9.37333 6.78125 9.49414C6.78125 9.61495 6.87919 9.71289 7 9.71289Z" fill="#221D1F"/>
<path d="M7 9.27539C6.86875 9.27539 6.78125 9.36289 6.78125 9.49414C6.78125 9.62539 6.86875 9.71289 7 9.71289C7.13125 9.71289 7.21875 9.62539 7.21875 9.49414C7.21875 9.36289 7.13125 9.27539 7 9.27539Z" fill="#221D1F"/>
</g>
</svg>
